# xmcd
#
# Track frame offsets: 
#        150
#        20223
#        37146
#        52540
#        68729
#        90553
#        107968
#        124330
#        139416
#        156971
#        172773
#        189481
#        205243
#        221373
#        236357
#        252105
#        266960
#        301029
#        318128
#        334260
#
# Disc length: 4681 seconds
#
# Revision: 0
# Processed by: cddbd v1.5.2PL0 Copyright (c) Steve Scherf et al.
# Submitted via: ExactAudioCopy v1.0b3
#
DISCID=1b124714
DTITLE=Various Artist - Trance The Sound Of Now - CD 1
DYEAR=1900
DGENRE=
TTITLE0=ATB With Heather Nova - Renegade (Short A&T Mix)
TTITLE1=Jan Wayne and Scarlet - I Touch Myself (Handz Up Edit)
TTITLE2=The Disco Boys - Here On My Own (Radio)
TTITLE3=Master Blaster - Can Delight
TTITLE4=Backside Artists Vs. Geen Plank - Sonic Empire 2007 (Club Mix)
TTITLE5=Lexy and K-Paul Feat. Dorian E - Wide Road (Short Mix)
TTITLE6=Mario Lopez - The Final (Original Radio Cut)
TTITLE7=Kindervater Feat. Nadja - Forever (Radio Edit)
TTITLE8=Kyau Vs. Albert - Always A Fool
TTITLE9=Nightfall Feat. Josephine - Heaven Is A Place On Earth
TTITLE10=Ann Lee - Catches Your Love (Original Album Version)
TTITLE11=David Kane - Club Sound
TTITLE12=Milo.NL Vs. CJ Stone - Exciting
TTITLE13=Crew 7 - Such A Shame (Sunset Crew Radio Edit)
TTITLE14=Brisby and Jingles - Heaven (Radio Mix)
TTITLE15=DJ Lee - Tomorrow (Short Mix)
TTITLE16=Alex Bartlett and Andy Guess - Universe Inside (Talla 2XLC Remi
TTITLE16=x)
TTITLE17=House Shoes - Energy (Club Radio Mix)
TTITLE18=Members Of Mayday - New Euphoria (Short)
TTITLE19=Scooter - Lass Uns Tanzen (Radio Edit)
EXTD=
EXTT0=
EXTT1=
EXTT2=
EXTT3=
EXTT4=
EXTT5=
EXTT6=
EXTT7=
EXTT8=
EXTT9=
EXTT10=
EXTT11=
EXTT12=
EXTT13=
EXTT14=
EXTT15=
EXTT16=
EXTT17=
EXTT18=
EXTT19=
PLAYORDER=
